<?xml version="1.0" standalone="no"?><!DOCTYPE svg PUBLIC "-//W3C//DTD SVG 1.1//EN"
        "http://www.w3.org/Graphics/SVG/1.1/DTD/svg11.dtd">
<svg t="1766762924398" class="icon" viewBox="0 0 1024 1024" version="1.1" xmlns="http://www.w3.org/2000/svg" p-id="5032"
     width="200" height="200">
    <path d="M173.4 677.2C77.7 677.2 0.1 754.8 0 850.5v0.1C0 946.3 77.6 1024 173.3 1024h0.1c95.7 0 173.4-77.6 173.4-173.3 0-95.9-77.6-173.5-173.4-173.5 0.1 0 0.1 0 0 0"
          fill="#9B9B9B" p-id="5033"></path>
    <path d="M80.1 294.5c-44.2 0-80 35.9-80 80.1v3.5c0 44.2 35.8 80.1 80 80.1 267.9 0 485.8 217.9 485.8 485.7 0 44.2 35.8 80.1 80 80.1h3.5c44.2 0 80-35.8 80-80 0.2-358.2-291.2-649.5-649.3-649.5"
          fill="#9B9B9B" p-id="5034"></path>
    <path d="M80.1 0C35.9 0 0 35.9 0 80.1s35.9 80.1 80.1 80.1c432.2 0 783.7 351.5 783.7 783.6 0 44.2 35.9 80.1 80.1 80.1 44.2 0 80-35.9 80.1-80.1 0-252.1-98.2-489.1-276.5-667.4C569.3 98.2 332.2 0 80.1 0"
          fill="#9B9B9B" p-id="5035"></path>
</svg>